<!DOCTYPE svg PUBLIC "-//W3C//DTD SVG 1.1//EN" "http://www.w3.org/Graphics/SVG/1.1/DTD/svg11.dtd">
<svg width="256px" height="256px" viewBox="-1.6 -1.6 19.20 19.20" fill="none" xmlns="http://www.w3.org/2000/svg" stroke="" stroke-width="0.00016" transform="rotate(0)">

<g stroke-width="0"/>

<g stroke-linecap="round" stroke-linejoin="round" stroke="#f050d0" stroke-width="0.32"> <path fill-rule="evenodd" clip-rule="evenodd" d="M3.54944 12L3.21611 15H5.22841L5.56175 12H9.54944L9.21611 15H11.2284L11.5617 12H14.5552L14.7774 10H11.784L12.2284 6H15.2218L15.4441 4H12.4506L12.784 1H10.7717L10.4383 4H6.45064L6.78397 1H4.77166L4.43833 4H1.44431L1.22209 6H4.21611L3.77166 10H0.777642L0.55542 12H3.54944ZM5.78397 10H9.77166L10.2161 6H6.22841L5.78397 10Z" fill="#ff79c6"/> </g>

<g> <path fill-rule="evenodd" clip-rule="evenodd" d="M3.54944 12L3.21611 15H5.22841L5.56175 12H9.54944L9.21611 15H11.2284L11.5617 12H14.5552L14.7774 10H11.784L12.2284 6H15.2218L15.4441 4H12.4506L12.784 1H10.7717L10.4383 4H6.45064L6.78397 1H4.77166L4.43833 4H1.44431L1.22209 6H4.21611L3.77166 10H0.777642L0.55542 12H3.54944ZM5.78397 10H9.77166L10.2161 6H6.22841L5.78397 10Z" fill="#ff79c6"/> </g>

</svg>
